<?xml version="1.0" encoding="UTF-8"?> <svg xmlns="http://www.w3.org/2000/svg" xmlns:xlink="http://www.w3.org/1999/xlink" viewBox="0 0 163.24243 20.48587"><defs><style>.cls-1{isolation:isolate;}.cls-2{fill:url(#linear-gradient);}.cls-3{fill:#fab22e;}.cls-4{fill:#fdc23e;}.cls-5{fill:#efa329;}.cls-6{fill:#fede55;}.cls-7{fill:#f47f56;}.cls-8{fill:#ed704a;}.cls-9{fill:#d35e39;}.cls-10{fill:#f7b5a4;}.cls-11{mix-blend-mode:overlay;opacity:0.35;}.cls-12{fill:#fefdff;}.cls-13{fill:url(#linear-gradient-13);}</style><linearGradient id="linear-gradient" x1="19.52556" y1="101.43162" x2="141.62262" y2="-32.74095" gradientUnits="userSpaceOnUse"><stop offset="0" stop-color="#252527"></stop><stop offset="1" stop-color="#6d6e71"></stop></linearGradient><linearGradient id="linear-gradient-13" x1="25.95031" y1="35.77764" x2="72.73494" y2="-15.63403" xlink:href="#linear-gradient"></linearGradient></defs><g class="cls-1"><g id="レイヤー_2" data-name="レイヤー 2"><g id="レイヤー_1-2" data-name="レイヤー 1"><path class="cls-2" d="M35.66089,19.88626a6.29262,6.29262,0,0,1-1.65527.59961.42575.42575,0,0,1-.40772-.43164c0-.28809.12012-.33594.61182-.51612,1.63086-.62353,2.05078-1.94287,2.49463-3.74169a10.411,10.411,0,0,0-2.4585-.91163c-1.23535,3.14209-2.18311,4.41358-3.6582,4.41358-1.27149,0-1.45118-1.12744-1.45118-1.78711a3.5115,3.5115,0,0,1,1.811-3.11816,4.03587,4.03587,0,0,1,1.90674-.4917,19.0346,19.0346,0,0,0,.95947-3.11817,16.226,16.226,0,0,1-2.09863.21582c-.13184,0-.56348,0-.56348-.41992,0-.40771.27588-.41943.70752-.43164.89941-.03613,1.23535-.04785,2.11084-.13184.20361-.02392,1.16309-.18017,1.271-.18017a.588.588,0,0,1,.55175.57568,37.786,37.786,0,0,1-1.23535,3.63428,10.65288,10.65288,0,0,1,2.38672.65967c.07227-.34815.24024-1.24756.312-2.02686.04785-.52783.10791-1.04346.86328-1.04346.18018,0,.99561.06006.99561.76758a25.97558,25.97558,0,0,1-.59961,2.96241c1.60693.76757,1.61914,1.04345,1.61914,1.36718,0,.35987-.228.92334-.71973.92334-.20361,0-.31152-.03613-.68359-.38379-.168-.15576-.39551-.34765-.62353-.52783A5.12819,5.12819,0,0,1,35.66089,19.88626Zm-4.44971-4.52148a3.47426,3.47426,0,0,0-1.06738,2.41064c0,.23975.02392.56348.33594.56348.59961,0,1.59521-2.42237,2.05078-3.58594A2.2084,2.2084,0,0,0,31.21118,15.36478Z"></path><path class="cls-2" d="M46.68921,14.06936c.9834,0,1.79883.50342,1.79883,1.54688,0,.41992-.1919,2.25488-.1919,2.63867,0,.46778.02393.83985.51612.83985.7915,0,1.40283-.86377,1.727-1.49952.26367-.52734.28759-.5874.52734-.5874a.44006.44006,0,0,1,.456.40772c0,.38379-1.25927,2.98632-3.32226,2.98632a1.55754,1.55754,0,0,1-1.6792-1.73925c0-.44336.21582-2.39844.21582-2.79444,0-.56347-.23975-.87549-.75537-.87549-1.4751,0-2.21875,2.13477-2.79443,3.76612-.06006.15576-.26416.89941-.32373,1.04346a.74483.74483,0,0,1-.73194.44384c-.2998,0-.92334-.15625-.92334-.77978,0-.17969,0-.396,1.31934-3.814.2998-.7915,1.6792-4.25781,1.95459-4.96533.228-.59961.33594-.88721.85156-.88721.43213,0,1.07959.26368,1.07959.7793a6.14754,6.14754,0,0,1-.57568,1.49951c-.12012.26367-.63575,1.46289-.74366,1.70264-.01171.02392-.37158.83984-.45556,1.05566A3.04273,3.04273,0,0,1,46.68921,14.06936Z"></path><path class="cls-2" d="M55.18677,10.43509c.144-.38379.2998-.5874.74365-.5874.34766,0,.85156.17968.85156.64746a2.61921,2.61921,0,0,1-.2876.86377c-.06.13183-.168.41943-.228.55175.19189-.0122.63574-.06006.85156-.084.168-.02393.63574-.09619.69531-.09619a.38094.38094,0,0,1,.396.40771c0,.45606-.10791.45606-2.2666.61182a39.72433,39.72433,0,0,0-1.52344,4.68945c-.21582.83936-.29981,1.1753-.87549,1.1753-.22754,0-.88721-.12012-.88721-.74366a6.02614,6.02614,0,0,1,.46729-1.583c.27588-.80371.98389-2.91455,1.17578-3.4541-.18018.01221-.73193.02393-.92383.02393-.31152,0-.68359,0-.68359-.40772a.419.419,0,0,1,.456-.44384c.22754,0,1.24707.0122,1.45118.0122C54.62329,11.94632,54.863,11.29886,55.18677,10.43509Zm3.394,4.13769c0-.40771,0-1.043.81592-1.043.83935,0,.83935.67139.83935.99512,0,.228-.01171,1.23535-.01171,1.43945.01171.23975.05957,1.30713.07177,1.52295a12.16879,12.16879,0,0,1,1.55908.61182c.4795.21582.71973.35986.71973.7793a.75181.75181,0,0,1-.74365.792c-.2041,0-.312-.07227-.564-.29981a10.253,10.253,0,0,0-.89941-.64794,1.169,1.169,0,0,1-.35986.89941,3.26085,3.26085,0,0,1-2.18262.67187c-1.19922,0-2.53076-.44384-2.53076-1.55908,0-.77978.77978-1.667,2.57861-1.667a6.77558,6.77558,0,0,1,.81592.05957C58.62915,16.22806,58.58081,15.50833,58.58081,14.57278Zm-.63525,3.29834c-.28809,0-1.19971.04785-1.19971.79151,0,.68359.67187.7915,1.00781.7915.31153,0,1.03125-.05957,1.03125-.86328,0-.10791-.02392-.45557-.03613-.59961A3.67325,3.67325,0,0,0,57.94556,17.87112Zm3.2622-4.74951a10.61641,10.61641,0,0,0-1.99121-.97119.385.385,0,0,1-.2876-.35986.392.392,0,0,1,.37159-.38379,14.34352,14.34352,0,0,1,2.063.51562c1.07959.32373,1.355.44385,1.355.87549a.73628.73628,0,0,1-.59961.76758C61.90308,13.56546,61.8313,13.51761,61.20776,13.12161Z"></path><path class="cls-2" d="M69.12964,16.93558c-.52783,1.57128-1.15137,2.51855-2.44678,2.51855-1.751,0-2.79443-1.811-2.79443-3.65771a5.31519,5.31519,0,0,1,5.64892-5.313c2.61475,0,5.02539,1.355,5.02539,4.54541,0,4.31738-4.27,4.83349-4.52148,4.83349a.40412.40412,0,0,1-.40772-.4082c0-.2876.11963-.32373.62354-.50342,1.65479-.59961,2.50635-2.62646,2.50635-4.13769a3.25543,3.25543,0,0,0-2.7461-3.38233A19.6954,19.6954,0,0,1,69.12964,16.93558Zm-2.68652-4.06543a6.79618,6.79618,0,0,0-1.03125,3.57373c0,1.78711.76757,2.08691,1.05517,2.08691.52783,0,.89941-1.16309,1.03125-1.60693a24.00673,24.00673,0,0,0,.7915-5.49317A3.35722,3.35722,0,0,0,66.44312,12.87015Z"></path><path class="cls-2" d="M83.19214,10.96292a1.048,1.048,0,0,1,1.06738,1.10352,10.17744,10.17744,0,0,1-2.73486,5.33691,10.52942,10.52942,0,0,1-5.44483,2.54248.37416.37416,0,0,1-.3955-.38379c0-.31152.28759-.38379.45556-.43164a7.98884,7.98884,0,0,0,5.229-4.0415,9.31623,9.31623,0,0,0,.93554-2.92676.38223.38223,0,0,0-.396-.43164H75.864c-.46777,0-.46777-.33594-.46777-.38379,0-.35986.32373-.38379.46777-.38379Zm1.90674.02393a.48964.48964,0,0,1-.4917.46777c-.228,0-.27588-.0957-.50391-.4917a5.83167,5.83167,0,0,0-.52734-.7793.43865.43865,0,0,1-.10791-.25195.35159.35159,0,0,1,.43164-.32373C84.12769,9.66751,85.09888,10.67532,85.09888,10.98685Zm1.10351-.63575a.47232.47232,0,0,1-.46777.44385c-.2041,0-.252-.07178-.4917-.43164a4.513,4.513,0,0,1-.59961-.89941A.33668.33668,0,0,1,85.051,9.128C85.219,9.16409,86.20239,9.99173,86.20239,10.3511Z"></path><path class="cls-2" d="M95.68335,18.315A1.0546,1.0546,0,0,1,94.616,19.38235H87.94751A1.05435,1.05435,0,0,1,86.88013,18.315V11.88626a1.05465,1.05465,0,0,1,1.06738-1.06738H94.616a1.0547,1.0547,0,0,1,1.06738,1.06738ZM89.075,11.58645a.39928.39928,0,0,0-.41992.40821v6.2124a.39994.39994,0,0,0,.41992.40772h4.41358a.40681.40681,0,0,0,.41943-.40772v-6.2124a.3995.3995,0,0,0-.41943-.40821Z"></path><path class="cls-2" d="M105.54761,11.69485a.88368.88368,0,0,1,.94726.87549A9.08808,9.08808,0,0,1,104.948,16.708a7.77385,7.77385,0,0,1-5.1333,3.2622,16.94787,16.94787,0,0,1-1.90674.2876.38153.38153,0,0,1-.396-.38379c0-.32373.228-.37158.61182-.43164,2.42236-.41992,4.18555-1.23535,5.49267-3.60986a8.05524,8.05524,0,0,0,.93555-3.01074c0-.13184-.04785-.35938-.2998-.35938h-3.1543A7.14485,7.14485,0,0,1,97.428,15.55667a.38137.38137,0,0,1-.396-.38379c0-.2041.07227-.25195.40821-.4917a6.21423,6.21423,0,0,0,2.5664-4.13769c.084-.396.1919-.82764.89942-.82764.38378,0,1.04345.19189,1.04345.76758a4.34027,4.34027,0,0,1-.43164,1.21142Zm1.415-.68408a.49777.49777,0,0,1-.4917.46777c-.21582,0-.27588-.0957-.50342-.47949a3.84228,3.84228,0,0,0-.55176-.77978.40986.40986,0,0,1-.10791-.252.34669.34669,0,0,1,.41943-.32373C105.94312,9.69192,106.96265,10.66311,106.96265,11.01077Zm1.07959-.67139a.46147.46147,0,0,1-.45606.44385c-.20361,0-.25146-.06006-.4917-.41992-.0957-.144-.31152-.396-.52734-.65967a.32223.32223,0,0,1-.10791-.23974.34555.34555,0,0,1,.41943-.32373C107.0227,9.16409,108.04224,9.96731,108.04224,10.33938Z"></path><path class="cls-2" d="M117.03149,13.086a.84371.84371,0,0,1,.87549.92334,5.66453,5.66453,0,0,1-2.49463,4.25781,8.38275,8.38275,0,0,1-3.71777,1.4873c-.20361.03565-.73145.09571-.85156.09571a.39213.39213,0,0,1-.40772-.38379c0-.33594.23975-.38379.64746-.44385a5.24132,5.24132,0,0,0,4.354-2.9502,5.58329,5.58329,0,0,0,.51562-1.87109.30878.30878,0,0,0-.32373-.34766H109.032c-.23974,0-.46777-.09619-.46777-.38378,0-.35987.33594-.38379.46777-.38379Zm-.55127-2.50684c.46729,0,.46729.33594.46729.38379,0,.06006,0,.38379-.46729.38379h-6.189c-.26367,0-.46777-.11963-.46777-.38379,0-.27588.2041-.38379.46777-.38379Z"></path><path class="cls-2" d="M121.18726,18.147a11.25254,11.25254,0,0,0,6.26025-3.27392,8.36165,8.36165,0,0,0,1.30713-1.73926c.084-.15576.168-.29981.38379-.29981a.382.382,0,0,1,.38379.35987,9.405,9.405,0,0,1-3.022,4.16162,13.36842,13.36842,0,0,1-5.74511,2.72265.92486.92486,0,0,1-.85157-.98339C119.90356,18.38675,120.34741,18.30276,121.18726,18.147Zm1.45117-5.9126a7.627,7.627,0,0,0-1.96729-1.51123c-.2998-.17968-.40771-.23974-.40771-.43164a.36844.36844,0,0,1,.35986-.35986,9.565,9.565,0,0,1,2.1709.70752c1.751.76758,1.78711,1.10351,1.78711,1.415a.96084.96084,0,0,1-.86377.93555C123.322,12.98978,123.262,12.918,122.63843,12.2344Z"></path><path class="cls-2" d="M136.84448,19.44241c.07178.87549-.77929.87549-.92334.87549a.73045.73045,0,0,1-.83984-.73145l-.2876-3.21435-4.06592.17969a.3875.3875,0,1,1-.03564-.76758l4.0293-.17969-.22754-2.6626-3.23828.14405a.37758.37758,0,0,1-.44385-.38379.38851.38851,0,0,1,.41992-.38379l3.18994-.144L134.302,10.7471c-.04785-.59961.31153-.8877.92334-.8877.70752,0,.81543.40821.83985.73194l.13183,1.499,3.09424-.144a.38293.38293,0,0,1,.45557.37207.39027.39027,0,0,1-.41993.39551l-3.0581.144.228,2.6748,3.66992-.18017a.38011.38011,0,0,1,.45556.37158.3904.3904,0,0,1-.41943.396l-3.63428.168Z"></path><path class="cls-2" d="M143.0271,18.147a11.252,11.252,0,0,0,6.26074-3.27392,8.36129,8.36129,0,0,0,1.30713-1.73926c.084-.15576.168-.29981.38379-.29981a.382.382,0,0,1,.38379.35987,9.40506,9.40506,0,0,1-3.022,4.16162,13.36849,13.36849,0,0,1-5.74512,2.72265.92486.92486,0,0,1-.85156-.98339C141.7439,18.38675,142.18774,18.30276,143.0271,18.147Zm1.45166-5.9126a7.627,7.627,0,0,0-1.96729-1.51123c-.2998-.17968-.40771-.23974-.40771-.43164a.36844.36844,0,0,1,.35986-.35986,9.56483,9.56483,0,0,1,2.1709.70752c1.751.76758,1.78711,1.10351,1.78711,1.415a.96084.96084,0,0,1-.86377.93555C145.16235,12.98978,145.10229,12.918,144.47876,12.2344Z"></path><path class="cls-2" d="M160.7478,11.69485a.88369.88369,0,0,1,.94727.87549,9.088,9.088,0,0,1-1.54688,4.1377,7.77385,7.77385,0,0,1-5.1333,3.2622,16.94754,16.94754,0,0,1-1.90674.2876.38153.38153,0,0,1-.396-.38379c0-.32373.228-.37158.61181-.43164,2.42237-.41992,4.18555-1.23535,5.49268-3.60986a8.05524,8.05524,0,0,0,.93555-3.01074c0-.13184-.04785-.35938-.29981-.35938H156.2981a7.14485,7.14485,0,0,1-3.66993,3.09424.38136.38136,0,0,1-.396-.38379c0-.2041.07226-.25195.4082-.4917a6.21423,6.21423,0,0,0,2.56641-4.13769c.084-.396.19189-.82764.89941-.82764.38379,0,1.04346.19189,1.04346.76758a4.34059,4.34059,0,0,1-.43164,1.21142Zm1.415-.68408a.49776.49776,0,0,1-.4917.46777c-.21582,0-.27588-.0957-.50342-.47949a3.84223,3.84223,0,0,0-.55175-.77978.4098.4098,0,0,1-.10791-.252.34668.34668,0,0,1,.41943-.32373C161.14331,9.69192,162.16284,10.66311,162.16284,11.01077Zm1.07959-.67139a.46146.46146,0,0,1-.45605.44385c-.20362,0-.25147-.06006-.4917-.41992-.09571-.144-.31153-.396-.52735-.65967a.32223.32223,0,0,1-.10791-.23974.34556.34556,0,0,1,.41944-.32373C162.2229,9.16409,163.24243,9.96731,163.24243,10.33938Z"></path><polygon class="cls-3" points="18.463 9.825 12.707 5.389 6.952 9.825 0 7.971 3.497 18.703 21.918 18.703 25.415 7.971 18.463 9.825"></polygon><path class="cls-4" d="M20.56306,14.63724a3.10407,3.10407,0,0,1-2.142-1.80659l.32535-2.97585-.53681-.06715-.31941,2.92116a3.05142,3.05142,0,0,1-2.66114,1.06308,3.01379,3.01379,0,0,1-2.513-1.60629,3.01394,3.01394,0,0,1-2.513,1.60629,3.06681,3.06681,0,0,1-2.628-1.02L7.20319,9.61006l-.5356.07643.3647,3.08212a3.08528,3.08528,0,0,1-2.16322,1.86863,3.07,3.07,0,0,1-2.89278-.6012c.06947.25615,1.52083,4.66678,1.52083,4.66678H21.91788s1.429-4.38355,1.5294-4.69109A3.06028,3.06028,0,0,1,20.56306,14.63724Z"></path><polygon class="cls-4" points="7.937 13.73 6.967 13.871 6.293 8.904 7.263 8.763 7.937 13.73"></polygon><path class="cls-5" d="M5.802,9.51849a1.131,1.131,0,0,0,2.22942-.2877,1.18426,1.18426,0,0,0-.02133-.22108l-1.05812.81546Z"></path><path class="cls-4" d="M7.94132,9.048A1.13346,1.13346,0,1,1,6.8079,7.89866,1.1416,1.1416,0,0,1,7.94132,9.048Z"></path><path class="cls-3" d="M7.49811,8.13786a1.15331,1.15331,0,0,1,.236.7A1.14155,1.14155,0,0,1,6.60058,9.98741a1.11642,1.11642,0,0,1-.6902-.2393,1.12527,1.12527,0,0,0,.89752.4494,1.15177,1.15177,0,0,0,.69021-2.05965Z"></path><path class="cls-6" d="M6.5269,8.53248A.21579.21579,0,1,1,6.311,8.31363.21746.21746,0,0,1,6.5269,8.53248Z"></path><polygon class="cls-4" points="18.506 13.681 17.533 13.562 18.152 8.587 19.125 8.706 18.506 13.681"></polygon><path class="cls-5" d="M18.80086,9.7351l-1.267-.21661a1.12845,1.12845,0,0,0,2.20036-.0323Z"></path><path class="cls-4" d="M19.70153,9.048a1.13345,1.13345,0,1,1-1.13347-1.14932A1.14165,1.14165,0,0,1,19.70153,9.048Z"></path><path class="cls-3" d="M19.25853,8.13786a1.15545,1.15545,0,0,1,.23575.7A1.14155,1.14155,0,0,1,18.361,9.98741a1.11621,1.11621,0,0,1-.69021-.2393,1.12439,1.12439,0,0,0,.89726.4494,1.15188,1.15188,0,0,0,.69047-2.05965Z"></path><path class="cls-6" d="M18.287,8.53248a.21577.21577,0,1,1-.21583-.21885A.21731.21731,0,0,1,18.287,8.53248Z"></path><path class="cls-3" d="M15.56739,12.64251A2.86025,2.86025,0,1,1,12.7075,9.7416,2.88075,2.88075,0,0,1,15.56739,12.64251Z"></path><path class="cls-4" d="M12.7075,15.33118a2.689,2.689,0,1,1,2.65089-2.68867A2.67311,2.67311,0,0,1,12.7075,15.33118Z"></path><path class="cls-5" d="M12.7075,14.82965a2.18736,2.18736,0,1,1,2.15628-2.18714A2.17444,2.17444,0,0,1,12.7075,14.82965Z"></path><path class="cls-7" d="M14.66356,12.64251a1.95636,1.95636,0,1,1-1.95606-1.984A1.97012,1.97012,0,0,1,14.66356,12.64251Z"></path><path class="cls-8" d="M13.6745,10.91927a1.9952,1.9952,0,0,1,.25729.9809,1.97025,1.97025,0,0,1-1.95627,1.984,1.92231,1.92231,0,0,1-.967-.26084,1.94926,1.94926,0,0,0,1.699,1.00307,1.98836,1.98836,0,0,0,.967-3.7071Z"></path><path class="cls-9" d="M13.924,11.09057a1.99178,1.99178,0,0,1,.426,1.23375,1.97049,1.97049,0,0,1-1.95626,1.98418,1.93059,1.93059,0,0,1-1.21646-.43182,1.94127,1.94127,0,0,0,1.53029.74969,1.98862,1.98862,0,0,0,1.21646-3.5358Z"></path><path class="cls-10" d="M12.44632,11.82385a.47071.47071,0,1,1-.47059-.47712A.474.474,0,0,1,12.44632,11.82385Z"></path><path class="cls-11" d="M19.5998,9.522a1.15775,1.15775,0,0,0,.10173-.474,1.13308,1.13308,0,1,0-2.26605-.01461l-4.728-3.64452v13.314h9.21038L25.41479,7.97115Z"></path><polygon class="cls-12" points="11.626 10.321 12.202 10.197 11.626 10.074 11.505 9.491 11.383 10.074 10.808 10.197 11.383 10.321 11.505 10.904 11.626 10.321"></polygon><polygon class="cls-12" points="3.46 11.04 4.096 10.904 3.46 10.768 3.326 10.124 3.192 10.768 2.557 10.904 3.192 11.04 3.326 11.685 3.46 11.04"></polygon><polygon class="cls-12" points="20.769 13.556 20.991 14.401 21.824 14.626 20.991 14.852 20.769 15.697 20.546 14.852 19.713 14.626 20.546 14.401 20.769 13.556"></polygon><path class="cls-13" d="M33.949.86673a.42452.42452,0,0,1,.4375.43213,4.58214,4.58214,0,0,1-1.42089,2.5874,4.613,4.613,0,0,1-2.17676.94531.132.132,0,0,1-.14014-.14062c0-.10791.05371-.1294.32959-.20508a3.5215,3.5215,0,0,0,2.1333-1.53418,4.44912,4.44912,0,0,0,.59961-1.59326.19376.19376,0,0,0-.20508-.19971H30.71851c-.05909,0-.19971,0-.19971-.146s.14062-.146.19971-.146Zm.81543-.043a.19735.19735,0,0,1-.1997.189c-.08643,0-.10254-.02685-.24854-.28076a2.97124,2.97124,0,0,1-.24853-.39453A.13612.13612,0,0,1,34.24048.208C34.3269.22952,34.7644.68851,34.7644.82376Zm.4917-.25928a.181.181,0,0,1-.18359.17822c-.07568,0-.09717-.02734-.23779-.24316a2.2476,2.2476,0,0,1-.2378-.36719A.13734.13734,0,0,1,34.7644.00247C34.84009.01858,35.2561.42386,35.2561.56448Z"></path><path class="cls-13" d="M39.34741,4.0972a.43276.43276,0,0,1-.44824.44287H36.01489a.433.433,0,0,1-.44873-.44287V1.25589A.43289.43289,0,0,1,36.01489.813h2.88428a.43269.43269,0,0,1,.44824.44287Zm-2.96-2.98731a.20153.20153,0,0,0-.21631.21631V4.03226a.2041.2041,0,0,0,.21631.21582h2.13916a.20639.20639,0,0,0,.21582-.21582V1.3262a.2041.2041,0,0,0-.21582-.21631Z"></path><path class="cls-13" d="M43.95679,1.16946a.367.367,0,0,1,.416.35108,4.07147,4.07147,0,0,1-1.64209,2.79785,4.27033,4.27033,0,0,1-1.7666.58887c-.06982.01074-.31836.04345-.36719.04345a.14539.14539,0,0,1-.146-.146c0-.12989.08642-.146.24316-.16748a3.1566,3.1566,0,0,0,2.501-1.52344,3.72924,3.72924,0,0,0,.50244-1.4961c0-.146-.10791-.15673-.13525-.15673H41.9314a2.90577,2.90577,0,0,1-.94532,1.05322,2.28107,2.28107,0,0,1-.61621.335.14194.14194,0,0,1-.1455-.14551c0-.081.02685-.09765.15136-.17871A2.81607,2.81607,0,0,0,41.634.61282c.03809-.16211.08106-.3291.32422-.3291.14014,0,.3457.0752.3457.27a2.73861,2.73861,0,0,1-.2163.61572Zm.64843-.335a.20231.20231,0,0,1-.20019.19434c-.08643,0-.10791-.02686-.21045-.19434A3.14316,3.14316,0,0,0,43.9353.47269a.16611.16611,0,0,1-.04883-.1084.13614.13614,0,0,1,.16211-.124C44.135.25638,44.60522.69388,44.60522.8345Zm.48047-.27539A.18378.18378,0,0,1,44.9021.732c-.08106,0-.09717-.022-.24854-.23242-.01074-.01611-.13525-.17285-.20507-.25391a.14449.14449,0,0,1-.04883-.10791.13484.13484,0,0,1,.16211-.12451C44.63208.024,45.08569.40237,45.08569.55911Z"></path><path class="cls-13" d="M47.12915,1.126a.276.276,0,0,1,.30273.26464c0,.21631-.46484.79981-.57275.94a2.99417,2.99417,0,0,0,.65918.84814.14516.14516,0,0,1,.0376.0918.12218.12218,0,0,1-.124.12451,2.23,2.23,0,0,1-.68066-.53516V4.84231c0,.16211-.05957.32422-.28613.32422-.227,0-.27051-.17822-.27051-.32422V3.00589a2.94321,2.94321,0,0,1-.81543.57275.12255.12255,0,0,1-.11865-.12988c0-.04834.02148-.07568.09179-.1294A4.13234,4.13234,0,0,0,46.7727,1.461a.09024.09024,0,0,0-.10253-.08643H45.471c-.043,0-.15137-.01074-.15137-.124,0-.1084.09717-.12451.15137-.12451h.7456V.51028c0-.16211.04834-.32422.27539-.32422a.27662.27662,0,0,1,.27539.32422V1.126Zm1.66357.65918a3.70693,3.70693,0,0,1-.82617,2.771c-.124.13477-.57812.59424-.6914.59424a.12105.12105,0,0,1-.11866-.12451.15509.15509,0,0,1,.05909-.10791,3.84063,3.84063,0,0,0,1.021-2.998V.8345h-.62646c-.05957,0-.15137-.01611-.15137-.12451,0-.11328.09717-.124.15137-.124h2.05273c.54541,0,.54541.28613.54541.51855a12.44867,12.44867,0,0,1-.24316,3.28418c-.19971.69141-.52393.72363-.93457.72363h-.66944c-.0542,0-.15136-.01074-.15136-.11865,0-.11328.10254-.124.15136-.124h.38868a.57664.57664,0,0,0,.605-.43213,10.33564,10.33564,0,0,0,.27-2.647c0-.36182-.00538-.76172-.01075-.82666-.01074-.10254-.07568-.1294-.16748-.1294h-.65381Zm-1.60937.7456a.29675.29675,0,0,1,.07568-.14062,3.98942,3.98942,0,0,0,.26465-.42676.1968.1968,0,0,1,.17822-.10254.24884.24884,0,0,1,.24854.23193c0,.09229-.03272.16211-.30811.36768a1.04932,1.04932,0,0,1-.335.19433A.1295.1295,0,0,1,47.18335,2.53079Z"></path><path class="cls-13" d="M50.89575,3.94046a.49784.49784,0,0,1,.10254-.26465,4.74846,4.74846,0,0,0,.55615-1.53955c.0166-.07568.04346-.12988.13526-.12988.08642,0,.13525.0542.13525.16748a7.51867,7.51867,0,0,1-.17285,1.46386c-.12451.56739-.23779.63233-.42139.63233A.35718.35718,0,0,1,50.89575,3.94046Zm2.02539.66992c0,.19971.04883.25342.25391.25342h.82666c.20508,0,.39941-.06983.50781-.5293.11328-.49121.14551-.54541.35108-.54541.16748,0,.3457.10254.3457.26465a1.85846,1.85846,0,0,1-.25928.76709.68563.68563,0,0,1-.66455.28613H52.88892c-.39991,0-.56739-.13476-.56739-.50781v-2.771c0-.09716,0-.37793.29737-.37793.30224,0,.30224.27539.30224.37793ZM53.9856,1.34231c-.103,0-.13526-.03271-.28663-.15673A6.12961,6.12961,0,0,0,52.511.44534c-.04883-.02148-.103-.04834-.103-.124a.12581.12581,0,0,1,.12451-.12451,4.99616,4.99616,0,0,1,1.05322.28662c.69678.26465.71826.3833.71826.51318A.34313.34313,0,0,1,53.9856,1.34231Zm1.58252,2.49024c-.19971,0-.26465-.11377-.31348-.32959a6.35023,6.35023,0,0,0-.41016-1.248A1.96228,1.96228,0,0,1,54.72,1.96878a.13406.13406,0,0,1,.12988-.11328,3.73714,3.73714,0,0,1,1.10157,1.60937A.374.374,0,0,1,55.56812,3.83255Z"></path><path class="cls-13" d="M61.14429,1.86087c.043,0,.16211,0,.16211.124,0,.12451-.11914.12451-.16211.12451H59.56714a7.40539,7.40539,0,0,1-1.10742.648h1.6206c.35645,0,.53467.15137.53467.48633v1.334c0,.37841-.23242.48632-.53467.48632H57.96265c-.34571,0-.53467-.146-.53467-.48632v-1.334a.46593.46593,0,0,1,.00537-.0918,6.72258,6.72258,0,0,1-.97754.22657.12557.12557,0,0,1-.12451-.124c0-.10254.103-.12451.17822-.14062A6.5262,6.5262,0,0,0,58.865,2.1094h-2.3501c-.043,0-.16162,0-.16162-.12451,0-.124.11865-.124.16162-.124H58.179V1.05569H57.012c-.03759,0-.16211,0-.16211-.124s.11914-.124.16211-.124h1.167V.55374c0-.14063,0-.373.29688-.373.30273,0,.30273.23242.30273.37305V.80765h.78858c.043,0,.16748,0,.16748.124s-.12451.124-.16748.124h-.78858v.80518h.41016A4.55633,4.55633,0,0,0,60.24243.667c.08057-.12451.14551-.19971.29688-.19971a.31885.31885,0,0,1,.335.27539c0,.25391-.64307.83692-.98291,1.11817Zm-1.1128,1.91748V3.25442c0-.20507-.0542-.2539-.2539-.2539H58.26c-.2002,0-.24854.04883-.24854.2539v.52393Zm-2.02.24853v.53467c0,.19971.043.25391.24854.25391h1.51758c.20556,0,.2539-.0542.2539-.25391V4.02688Z"></path><path class="cls-13" d="M63.10718,2.22806a1.06581,1.06581,0,0,1,.68066-.24854.85862.85862,0,0,1,.875.65918A6.46456,6.46456,0,0,1,65.7,2.26028a.2188.2188,0,0,1,.21582.23242c0,.17286-.14551.20508-.33447.24854a4.29572,4.29572,0,0,0-.85889.24316c.01074.20508.01612.58887.01612.81006,0,.20508,0,.416-.28077.416-.28662,0-.28662-.19434-.28662-.28076,0-.11377.01612-.61573.01612-.71875-.37793.21093-.79932.48632-.79932.94531,0,.55127.71875.5835,1.10205.5835.17285,0,.49707-.02149.77246-.0542.07568-.01075.3999-.06446.46973-.06446a.16858.16858,0,0,1,.17822.1836c0,.16748-.13477.17822-.2373.189-.36768.03223-.71875.043-1.167.043-.76172,0-1.6958-.043-1.6958-.76123,0-.44873.35108-.86426,1.36621-1.40479-.02685-.189-.08642-.57226-.49121-.57226-.66455,0-1.03174.7832-1.15088,1.04248-.18359.38867-.1997.43213-.36718.43213a.26885.26885,0,0,1-.28077-.23242c0-.065.00538-.09717.1836-.45362.14062-.27539.77246-1.45849.90185-1.70166-.15625.00537-.73974.03272-.89648.03272-.043,0-.189,0-.189-.15674,0-.15137.13477-.15137.22657-.15137.23779-.00537.90771-.02685,1.02636-.0376.41065-.76171.44873-.832.63233-.832.11328,0,.34033.07032.34033.26465,0,.07569-.02734.12451-.28125.52393.22705-.01074.562-.0376.81592-.05957.15674-.01074.40478-.05371.56152-.05371a.14816.14816,0,0,1,.146.15673c0,.14014-.11328.15088-.23242.16163-.55079.04882-.64258.05419-1.48536.10839C63.45288,1.63382,63.28,1.93118,63.10718,2.22806Z"></path><path class="cls-13" d="M69.04517.84524V.5264c0-.189.07031-.34571.29736-.34571.22119,0,.29687.16748.29687.34571V.84524h1.99854c.04883,0,.15137.01075.15137.124,0,.1084-.09717.12451-.15137.12451H68.00806c-.22119,0-.27.0542-.27.27V2.68167a3.83731,3.83731,0,0,1-.51856,1.98779c-.09179.15674-.28076.43213-.37793.43213a.1307.1307,0,0,1-.12988-.124.21658.21658,0,0,1,.02734-.08643c.09717-.19433.1294-.25928.17823-.37842a5.39552,5.39552,0,0,0,.25927-1.67431V1.37454c0-.31348.11866-.5293.57227-.5293Zm-.51856,1.83643a10.3971,10.3971,0,0,1-.23193,1.69092c-.07569.28613-.16748.37793-.32422.37793a.30583.30583,0,0,1-.31885-.29151,3.61606,3.61606,0,0,1,.28613-.61572,4.37637,4.37637,0,0,0,.34034-1.1831.1256.1256,0,0,1,.12451-.11329C68.489,2.5469,68.52661,2.60061,68.52661,2.68167Zm.94531,1.93945c0,.20508.04883.25391.25391.25391h.50781c.189,0,.35645-.0166.4375-.42139.0376-.18359.07031-.35107.30274-.35107a.28269.28269,0,0,1,.29687.25928,1.32273,1.32273,0,0,1-.189.50781.6234.6234,0,0,1-.56739.2539H69.47729c-.39941,0-.57226-.14062-.57226-.51318V2.36331c0-.08643,0-.35107.28076-.35107.27539,0,.28613.2373.28613.35107Zm.59961-3.05224c.19434.13525.47022.32422.47022.50244a.32788.32788,0,0,1-.31348.3081A.22751.22751,0,0,1,70.012,2.2388a3.23739,3.23739,0,0,0-.59912-.79395.14274.14274,0,0,1-.03808-.09179.124.124,0,0,1,.10253-.12452A2.54942,2.54942,0,0,1,70.07153,1.56888ZM71.406,3.04935a2.11564,2.11564,0,0,1,.41552.7666.30828.30828,0,0,1-.32373.28662.269.269,0,0,1-.28125-.23779,5.47856,5.47856,0,0,0-.50195-1.26954.19718.19718,0,0,1-.02734-.081.12933.12933,0,0,1,.12451-.124C70.92505,2.39017,71.27612,2.86526,71.406,3.04935Z"></path><path class="cls-13" d="M73.06567.5264c0-.06983,0-.34034.28077-.34034.24853,0,.28613.19483.28613.34034v.81591h.31885c.0542,0,.15136.01612.15136.124,0,.11328-.10254.12451-.15136.12451h-.31885V2.70364a2.30972,2.30972,0,0,1,.292-.14062.12545.12545,0,0,1,.124.124c0,.08643-.21045.227-.416.36768V4.691c0,.2705-.08643.44336-.48047.44336h-.47559c-.043,0-.16748,0-.16748-.11914,0-.124.12451-.124.16748-.124h.16211c.189,0,.227-.04345.227-.22705V3.40579a1.69831,1.69831,0,0,1-.45947.23193.2382.2382,0,0,1-.22119-.24267.22827.22827,0,0,1,.16748-.22168c.14063-.05957.37256-.146.51318-.20508V1.59085h-.48095c-.04834,0-.15137-.01123-.15137-.12451s.1084-.124.15137-.124h.48095Zm2.24707,2.96045a2.80849,2.80849,0,0,1-1.167,1.62011.22926.22926,0,0,1-.124.0542.126.126,0,0,1-.12451-.12451c0-.05908.03808-.08594.081-.124a2.81215,2.81215,0,0,0,.875-2.03077h-.59912c-.04883,0-.15137-.01123-.15137-.12451s.10254-.124.15137-.124h.61035c0-.03272.00537-.081.00537-.11914V2.11478h-.51318c-.0542,0-.15137-.01075-.15137-.12452,0-.11328.10254-.124.15137-.124h2.74365c.0542,0,.15137.01611.15137.124,0,.11377-.10254.12452-.15137.12452H75.44751V2.482c0,.02149,0,.07032-.00537.15137h1.80957c.0542,0,.15137.01611.15137.124,0,.11328-.10254.12451-.15137.12451H75.426a3.59316,3.59316,0,0,1-.0542.35645h1.38281c.18945,0,.28662.10791.28662.22119a1.93536,1.93536,0,0,1-.70215,1.03711,2.39,2.39,0,0,0,.97217.42676.12137.12137,0,0,1,.10254.11914.11879.11879,0,0,1-.124.124,2.96915,2.96915,0,0,1-1.2749-.4375,3.71192,3.71192,0,0,1-1.2207.44825.127.127,0,0,1-.12988-.124.12441.12441,0,0,1,.103-.12451,2.72493,2.72493,0,0,0,.93946-.42139c-.20508-.18359-.4375-.44824-.4375-.605a.2726.2726,0,0,1,.28662-.25927c.12939,0,.17285.081.21582.15673a2.6305,2.6305,0,0,0,.26465.40528,1.64623,1.64623,0,0,0,.35107-.64844c0-.04834-.04834-.06982-.09717-.06982ZM77.095.4346c0,.16748-.16162.20557-.25928.21631-.65332.08642-2.07959.13476-2.45752.13476-.06494,0-.189,0-.189-.124,0-.12451.0918-.12451.17822-.12988A11.44074,11.44074,0,0,0,76.512.27249a2.90188,2.90188,0,0,1,.34033-.0918A.25137.25137,0,0,1,77.095.4346ZM75.06958,1.50442a.27517.27517,0,0,1-.28076.25928c-.14063,0-.16211-.04346-.28125-.31348a2.83663,2.83663,0,0,1-.22119-.44287.13065.13065,0,0,1,.12939-.12451C74.48608.88284,75.06958,1.272,75.06958,1.50442Zm.99365-.04345a.26937.26937,0,0,1-.27539.2539c-.15625,0-.189-.081-.27-.29687-.02685-.07569-.1997-.44287-.1997-.47022a.12066.12066,0,0,1,.124-.11865C75.52856.82913,76.06323,1.24515,76.06323,1.461Zm1.0752-.43213c0,.21094-.58887.751-.686.751a.12.12,0,0,1-.124-.11328c0-.02734.17285-.44873.19971-.52978.10254-.29151.124-.36182.31347-.36182A.2854.2854,0,0,1,77.13843,1.02884Z"></path><path class="cls-13" d="M79.95386,4.41019a.405.405,0,1,1-.81006,0,.40507.40507,0,1,1,.81006,0ZM79.74878,3.503a.196.196,0,0,1-.2002.19433.18859.18859,0,0,1-.1997-.19433L79.19751.73733a.354.354,0,0,1,.70752,0Z"></path></g></g></g></svg> 